<svg width="820" height="692" viewBox="0 0 820 692" fill="none" xmlns="http://www.w3.org/2000/svg">
  <path d="M820 0C820 0 650 100 500 200C350 300 200 400 100 500C0 600 0 692 0 692H820V0Z" fill="url(#gradient1)" opacity="0.6"/>
  <path d="M0 692C0 692 150 600 300 500C450 400 600 300 700 200C800 100 820 0 820 0V692H0Z" fill="url(#gradient2)" opacity="0.4"/>
  <circle cx="600" cy="150" r="120" fill="url(#gradient3)" opacity="0.3"/>
  <circle cx="200" cy="550" r="100" fill="url(#gradient4)" opacity="0.3"/>
  <defs>
    <linearGradient id="gradient1" x1="0" y1="0" x2="820" y2="692">
      <stop offset="0%" stop-color="#EF4444" stop-opacity="0.8"/>
      <stop offset="100%" stop-color="#DC2626" stop-opacity="0.4"/>
    </linearGradient>
    <linearGradient id="gradient2" x1="0" y1="692" x2="820" y2="0">
      <stop offset="0%" stop-color="#F87171" stop-opacity="0.6"/>
      <stop offset="100%" stop-color="#EF4444" stop-opacity="0.3"/>
    </linearGradient>
    <linearGradient id="gradient3" x1="480" y1="30" x2="720" y2="270">
      <stop offset="0%" stop-color="#EF4444" stop-opacity="0.5"/>
      <stop offset="100%" stop-color="#F87171" stop-opacity="0.2"/>
    </linearGradient>
    <linearGradient id="gradient4" x1="100" y1="450" x2="300" y2="650">
      <stop offset="0%" stop-color="#DC2626" stop-opacity="0.5"/>
      <stop offset="100%" stop-color="#EF4444" stop-opacity="0.2"/>
    </linearGradient>
  </defs>
</svg>

